<svg width="50" height="50" viewBox="0 0 50 50" fill="none" xmlns="http://www.w3.org/2000/svg">
<path fill-rule="evenodd" clip-rule="evenodd" d="M31.8904 19.631L22.98 30.7386C22.8433 30.9091 22.6389 31.0115 22.4204 31.0189C22.2019 31.0263 21.9911 30.938 21.8431 30.7771L18.1428 26.7552L19.2467 25.7396L22.3561 29.1192L30.7204 18.6924L31.8904 19.631Z" fill="#3D1152"/>
<path fill-rule="evenodd" clip-rule="evenodd" d="M25.0106 0.0395508C25.2531 0.0395508 25.4805 0.156724 25.6213 0.354099C25.8037 0.60989 26.1479 0.946989 26.6703 1.34918C27.1835 1.74431 27.8327 2.17507 28.5892 2.62456C30.1019 3.52324 32.0081 4.47555 34.0361 5.34622C36.0635 6.21661 38.1986 6.99935 40.1667 7.56323C42.147 8.13056 43.9109 8.46238 45.2132 8.46238C45.6274 8.46238 45.9632 8.79816 45.9632 9.21238V30.2694C45.9632 32.4628 44.6148 34.7608 42.785 36.8999C40.9303 39.068 38.4642 41.206 35.9894 43.0934C33.51 44.9841 30.9982 46.6411 29.0348 47.8451C28.053 48.4472 27.2047 48.9382 26.5628 49.29C26.2423 49.4657 25.9692 49.6088 25.7544 49.7146C25.5642 49.8082 25.3589 49.9035 25.2067 49.9447C25.0762 49.9801 24.9385 49.9795 24.8083 49.943C24.6679 49.9036 24.4721 49.8171 24.2784 49.7259C24.0643 49.625 23.7917 49.4886 23.4708 49.3205C22.8284 48.9838 21.9792 48.5128 20.9957 47.929C19.0295 46.7618 16.5131 45.1358 14.0287 43.2199C11.5484 41.3071 9.0761 39.0872 7.21721 36.7285C5.36825 34.3825 4.05811 31.8132 4.05811 29.2166V9.21238C4.05811 8.79816 4.39389 8.46238 4.80811 8.46238C5.98345 8.46238 7.68278 8.13283 9.64598 7.56386C11.5936 6.99942 13.7459 6.21586 15.8054 5.34465C17.8657 4.47313 19.8187 3.52004 21.3702 2.62052C22.1462 2.17057 22.8123 1.73952 23.3374 1.34424C23.8728 0.941188 24.2206 0.605646 24.4 0.354099C24.5408 0.156724 24.7682 0.0395508 25.0106 0.0395508ZM5.55811 9.93039V29.2166C5.55811 31.321 6.6324 33.5632 8.3953 35.8C10.1483 38.0243 12.5153 40.1585 14.9447 42.0321C17.3701 43.9025 19.8338 45.4949 21.7613 46.6391C22.7247 47.211 23.5507 47.6688 24.1671 47.9919C24.4757 48.1536 24.7285 48.2798 24.9177 48.3689C24.9495 48.3839 24.9791 48.3976 25.0065 48.4102C25.0322 48.398 25.0606 48.3842 25.0921 48.3687C25.2805 48.276 25.5329 48.144 25.8418 47.9746C26.4588 47.6365 27.2858 47.1581 28.2507 46.5664C30.181 45.3827 32.6493 43.7541 35.0798 41.9006C37.5146 40.0438 39.8879 37.979 41.6451 35.9248C43.4272 33.8416 44.4632 31.898 44.4632 30.2694V9.93456C43.0895 9.83762 41.4591 9.49382 39.7536 9.00521C37.7139 8.42082 35.5186 7.61507 33.4444 6.72457C31.3708 5.83434 29.404 4.85335 27.8231 3.91414C27.0329 3.44469 26.3302 2.98036 25.7552 2.53773C25.4831 2.32822 25.2308 2.11691 25.0078 1.90573C24.7789 2.11914 24.5192 2.3321 24.2395 2.54267C23.6517 2.98514 22.9314 3.44919 22.1225 3.91818C20.5041 4.85655 18.4923 5.83675 16.3898 6.72613C14.2866 7.61582 12.078 8.42075 10.0635 9.00458C8.40471 9.48533 6.83876 9.82778 5.55811 9.93039Z" fill="#3D1152"/>
<path fill-rule="evenodd" clip-rule="evenodd" d="M24.619 6.80849C24.8551 6.66929 25.1484 6.67001 25.3839 6.81037C29.9608 9.53866 34.9076 11.6065 40.0748 12.9511C40.4053 13.0371 40.6359 13.3355 40.6359 13.677V30.2699C40.6359 30.2988 40.6343 30.3276 40.6309 30.3563C40.5941 30.6745 40.4228 31.0763 40.1719 31.5134C39.9063 31.9764 39.5067 32.5549 38.9336 33.2426C37.7871 34.6186 35.9258 36.4564 32.9956 38.7083L32.9954 38.7085C30.5473 40.5886 27.9873 42.3212 25.3291 43.8968C25.0958 44.0351 24.806 44.0366 24.5712 43.9009C21.8286 42.3149 19.2049 40.5355 16.7203 38.5763L16.7188 38.5751C14.0706 36.4763 12.2522 34.5877 11.0886 33.0152C9.95059 31.4775 9.36377 30.1413 9.36377 29.1644V13.6454C9.36377 13.3043 9.59396 13.0061 9.92397 12.9198C15.0858 11.5695 20.0318 9.51256 24.619 6.80849ZM10.8638 14.2215V29.1644C10.8638 29.6405 11.202 30.6469 12.2943 32.1229C13.3607 33.564 15.0775 35.3602 17.6496 37.3988C19.9627 39.2227 22.3993 40.8873 24.9422 42.3809C27.4137 40.8965 29.7975 39.2732 32.0818 37.5189C34.9464 35.3173 36.7214 33.5544 37.7812 32.2824C38.3114 31.6462 38.6574 31.139 38.8709 30.7669C38.9777 30.5808 39.048 30.4343 39.0914 30.3271C39.1168 30.2644 39.1297 30.2232 39.1359 30.201V14.2538C34.1777 12.9104 29.4228 10.9164 24.9978 8.3245C20.566 10.8923 15.8143 12.8747 10.8638 14.2215Z" fill="#3D1152"/>
</svg>
