<svg width="50" height="50" viewBox="0 0 50 50" fill="none" xmlns="http://www.w3.org/2000/svg">
<path fill-rule="evenodd" clip-rule="evenodd" d="M24.9249 0.000344659C24.909 -0.000114886 24.8931 -0.000114886 24.8773 0.000344659C22.0678 0.0816218 19.3957 1.23399 17.4082 3.22143C15.4208 5.20886 14.2684 7.88097 14.1871 10.6905C14.1869 10.6984 14.1868 10.7063 14.1868 10.7143C14.1868 14.8392 16.2316 17.3682 18.4101 19.7992C18.5799 19.9887 18.7506 20.1777 18.9215 20.367C20.9543 22.6181 23.0228 24.9089 24.1118 28.5338C24.2164 28.8823 24.5373 29.1209 24.9011 29.1209C25.265 29.1209 25.5858 28.8822 25.6904 28.5337C26.7789 24.9086 28.8476 22.6178 30.8806 20.3666C31.0514 20.1774 31.222 19.9886 31.3916 19.7992C33.5702 17.3683 35.6154 14.8393 35.6154 10.7143L35.6153 10.7027L35.615 10.6905C35.5337 7.88097 34.3814 5.20886 32.3939 3.22143C30.4065 1.23399 27.7344 0.0816218 24.9249 0.000344659ZM18.5738 4.38699C20.2581 2.70263 22.5208 1.72365 24.9011 1.64873C27.2813 1.72365 29.544 2.70263 31.2284 4.38699C32.9156 6.07417 33.895 8.34162 33.967 10.7263C33.9632 14.1854 32.3069 16.3081 30.1641 18.6991C29.9925 18.8906 29.8179 19.0836 29.6411 19.2791L29.6408 19.2794L29.6407 19.2795L29.6401 19.2802L29.6391 19.2813C27.9988 21.0943 26.1725 23.113 24.901 25.9421C23.6293 23.1133 21.8031 21.0947 20.1631 19.2817L20.1628 19.2815L20.1624 19.281L20.1619 19.2804L20.1613 19.2797L20.1606 19.279L20.1604 19.2787L20.1583 19.2765L20.1574 19.2755C19.9817 19.0813 19.8082 18.8894 19.6377 18.6991C17.495 16.3081 15.839 14.1854 15.8352 10.7262C15.9072 8.3416 16.8866 6.07416 18.5738 4.38699ZM12.8132 17.5825H1V50.0001H48.8022V17.5825H36.989V19.2308H47.1538V48.3517H2.64835V19.2308H12.8132V17.5825ZM24.9094 8.24171C24.5852 8.24063 24.264 8.30329 23.9641 8.42613C23.6636 8.54919 23.3903 8.73022 23.1598 8.9589C22.9293 9.18758 22.746 9.45942 22.6206 9.75891C22.4954 10.0579 22.4301 10.3786 22.4286 10.7027C22.429 11.1877 22.5727 11.6618 22.8418 12.0653C23.1111 12.4693 23.4941 12.7845 23.9423 12.9712C24.3905 13.1579 24.884 13.2078 25.3605 13.1145C25.837 13.0212 26.2753 12.7889 26.62 12.4469C26.9647 12.1049 27.2005 11.6686 27.2976 11.1928C27.3947 10.7171 27.3488 10.2232 27.1657 9.77349C26.9826 9.32378 26.6704 8.93833 26.2686 8.66574C25.8672 8.39345 25.3943 8.24593 24.9094 8.24171ZM24.9143 7.41754L24.9176 6.59338C24.3765 6.59121 23.8402 6.69565 23.3394 6.90074C22.8386 7.10583 22.3831 7.40756 21.9989 7.78869C21.6147 8.16982 21.3093 8.62289 21.1002 9.12203C20.8912 9.62117 20.7824 10.1566 20.7803 10.6978V10.7011C20.7803 11.5121 21.0204 12.305 21.4703 12.9797C21.9202 13.6545 22.5598 14.181 23.3085 14.4928C24.0571 14.8047 24.8814 14.8879 25.6773 14.7321C26.4732 14.5763 27.2051 14.1883 27.7809 13.6171C28.3567 13.046 28.7505 12.3171 28.9127 11.5225C29.0749 10.7279 28.9982 9.903 28.6924 9.15187C28.3865 8.40073 27.8651 7.75695 27.194 7.30165C26.5228 6.84635 25.7319 6.59991 24.9209 6.5934L24.9143 7.41754ZM5.70369 24.4172L18.6491 37.3626H32.9348L40.8685 45.2963L39.703 46.4618L32.2521 39.0109H24.6264V43.34L26.5828 45.2964L25.4172 46.462L22.978 44.0228V39.0109H17.9663L13.9122 34.9568L9.58323 39.2858L15.5938 45.2964L14.4282 46.462L4.53813 36.5719L5.70369 35.4063L8.41767 38.1203L12.7467 33.7913L4.53813 25.5827L5.70369 24.4172ZM10.0327 22.2861L11.1983 21.1205L21.9459 31.8681H36.2316L38.0881 33.7246L41.3181 30.4945L34.2085 23.3849L35.3741 22.2194L45.2642 32.1095L44.0986 33.2751L42.4837 31.6601L39.2536 34.8901L45.2642 40.9007L44.0986 42.0663L35.5488 33.5165H21.2631L10.0327 22.2861Z" fill="#3D1152"/>
</svg>
