<svg width="50" height="50" viewBox="0 0 50 50" fill="none" xmlns="http://www.w3.org/2000/svg">
<path fill-rule="evenodd" clip-rule="evenodd" d="M37.6791 21.3901H38.7486C38.7611 21.3901 38.7735 21.3904 38.7859 21.391C39.5445 21.4263 40.2625 21.7435 40.7994 22.2805C41.3364 22.8174 41.6536 23.5355 41.6889 24.294C41.6895 24.3064 41.6898 24.3189 41.6898 24.3313V35.9495C41.6898 36.6554 41.4367 37.4528 41.1282 38.2035C40.8119 38.9733 40.3952 39.7905 39.9939 40.5564C39.9097 40.717 39.8265 40.875 39.7448 41.03C39.4295 41.628 39.1377 42.1818 38.9067 42.6744C38.7624 42.9822 38.6511 43.247 38.5771 43.4665C38.4992 43.6974 38.4812 43.8252 38.4812 43.8757V45.7217H36.877V43.8757C36.877 43.566 36.9592 43.2437 37.0569 42.954C37.1583 42.6531 37.2977 42.327 37.4542 41.9933C37.7027 41.4633 38.0179 40.8654 38.3353 40.2634C38.4147 40.1128 38.4942 39.962 38.5729 39.8118C38.9737 39.0469 39.3591 38.2879 39.6444 37.5937C39.9375 36.8804 40.0855 36.326 40.0855 35.9495V24.352C40.065 23.9989 39.9155 23.6653 39.665 23.4149C39.4146 23.1645 39.0811 23.0149 38.7279 22.9944H37.6791V21.3901Z" fill="#3D1152"/>
<path fill-rule="evenodd" clip-rule="evenodd" d="M22.092 4.28174C22.1446 4.27653 22.1976 4.27653 22.2502 4.28174C23.2372 4.37954 24.1462 4.86137 24.7811 5.62331C25.4086 6.37626 25.7188 7.34311 25.6471 8.31969V24.3313H24.0428V8.28853C24.0428 8.26645 24.0437 8.24438 24.0455 8.22238C24.0926 7.65348 23.9142 7.08888 23.5487 6.65034C23.2003 6.23224 22.7085 5.96068 22.1711 5.8875C21.6337 5.96068 21.142 6.23224 20.7935 6.65034C20.4281 7.08888 20.2497 7.65348 20.2967 8.22238C20.2986 8.24438 20.2995 8.26645 20.2995 8.28853V26.4703C20.2995 26.614 20.2609 26.755 20.1878 26.8786L18.2905 30.0872C18.1489 30.3265 17.8936 30.4755 17.6156 30.4809C17.3377 30.4863 17.0767 30.3474 16.926 30.1138L13.4882 24.7855C12.6187 23.5996 11.6004 23.4031 10.8334 23.5491C10.4266 23.6265 10.086 23.8015 9.86151 23.9932C9.74071 24.0964 9.67651 24.1824 9.64245 24.2419L9.76168 24.5045C9.90787 24.8262 10.1174 25.2869 10.3706 25.8426C10.877 26.9541 11.5581 28.4451 12.257 29.9639C12.9561 31.4832 13.6722 33.0284 14.2488 34.249C14.5373 34.8597 14.7896 35.3863 14.9868 35.7868C15.1933 36.2062 15.3176 36.4418 15.3604 36.509C15.5475 36.8018 15.9166 37.2345 16.4153 37.7757C16.6963 38.0807 16.9928 38.393 17.2991 38.7157C17.5353 38.9646 17.7774 39.2197 18.0227 39.4822C18.5682 40.066 19.1074 40.6636 19.513 41.1959C19.7155 41.4616 19.8996 41.7303 20.0364 41.9873C20.1626 42.2244 20.2995 42.5433 20.2995 42.8853V45.7217H18.6952V42.9101C18.6916 42.8993 18.6763 42.8463 18.6203 42.7411C18.5407 42.5916 18.4136 42.4001 18.2369 42.1682C17.8842 41.7052 17.393 41.158 16.8505 40.5775C16.6267 40.3379 16.3893 40.0877 16.1524 39.838C15.8342 39.5026 15.5171 39.1684 15.2356 38.8629C14.7454 38.331 14.2824 37.8014 14.0086 37.3728C13.9078 37.2149 13.7406 36.8877 13.5475 36.4955C13.3447 36.0836 13.0881 35.5479 12.7982 34.9343C12.2182 33.7064 11.4995 32.1554 10.7997 30.6345C10.0996 29.1133 9.41764 27.6203 8.91071 26.5078C8.65723 25.9515 8.44748 25.4903 8.30109 25.1681L8.07182 24.6631C8.07177 24.663 8.07157 24.6625 8.80214 24.3313L8.07182 24.6631C8.02465 24.559 8 24.4455 8 24.3313C8 23.6825 8.39253 23.1382 8.81951 22.7734C9.26749 22.3907 9.86755 22.0998 10.5335 21.9731C11.9082 21.7115 13.5577 22.1509 14.7988 23.86C14.8074 23.8719 14.8158 23.884 14.8238 23.8964L17.5703 28.1533L18.6952 26.2509V8.31969C18.6235 7.34311 18.9336 6.37626 19.5611 5.62331C20.196 4.86137 21.105 4.37954 22.092 4.28174Z" fill="#3D1152"/>
<path fill-rule="evenodd" clip-rule="evenodd" d="M26.9839 16.043H28.0534C28.0659 16.043 28.0783 16.0433 28.0907 16.0438C28.8493 16.0792 29.5673 16.3964 30.1042 16.9333C30.6412 17.4703 30.9584 18.1883 30.9937 18.9468C30.9943 18.9593 30.9946 18.9717 30.9946 18.9841V23.2622H29.3903V19.0049C29.3698 18.6517 29.2203 18.3181 28.9698 18.0677C28.7194 17.8173 28.3858 17.6678 28.0327 17.6472H26.9839V16.043Z" fill="#3D1152"/>
<path fill-rule="evenodd" clip-rule="evenodd" d="M32.3315 17.1123H33.4011C33.4135 17.1123 33.426 17.1126 33.4384 17.1132C34.1969 17.1485 34.9149 17.4657 35.4519 18.0026C35.9888 18.5396 36.306 19.2576 36.3414 20.0162C36.3419 20.0286 36.3422 20.041 36.3422 20.0535V24.3316H34.738V20.0742C34.7174 19.721 34.5679 19.3875 34.3175 19.137C34.0671 18.8866 33.7335 18.7371 33.3803 18.7166H32.3315V17.1123Z" fill="#3D1152"/>
<path fill-rule="evenodd" clip-rule="evenodd" d="M16.5562 45.7221C16.5562 45.2791 16.9153 44.9199 17.3583 44.9199H39.8182C40.2612 44.9199 40.6203 45.2791 40.6203 45.7221V50.0001H39.016V46.5242H18.1604V50.0001H16.5562V45.7221Z" fill="#3D1152"/>
<path fill-rule="evenodd" clip-rule="evenodd" d="M28.0535 0H32.3315C32.7746 0 33.1337 0.35913 33.1337 0.802139V5.08021H31.5294V1.60428H28.0535V0Z" fill="#3D1152"/>
<path fill-rule="evenodd" clip-rule="evenodd" d="M31.5294 11.7645V8.28857H33.1337V12.5666C33.1337 13.0097 32.7746 13.3688 32.3315 13.3688H28.0535V11.7645H31.5294Z" fill="#3D1152"/>
<path fill-rule="evenodd" clip-rule="evenodd" d="M11.2085 0.802139C11.2085 0.35913 11.5676 0 12.0106 0H16.2887V1.60428H12.8128V5.08021H11.2085V0.802139Z" fill="#3D1152"/>
<path fill-rule="evenodd" clip-rule="evenodd" d="M11.2085 12.5666V8.28857H12.8128V11.7645H16.2887V13.3688H12.0106C11.5676 13.3688 11.2085 13.0097 11.2085 12.5666Z" fill="#3D1152"/>
</svg>
