<svg width="50" height="50" viewBox="0 0 50 50" fill="none" xmlns="http://www.w3.org/2000/svg">
<path fill-rule="evenodd" clip-rule="evenodd" d="M37.7597 11.5763L34.667 8.46758L35.7304 7.40967L38.8231 10.5184L37.7597 11.5763Z" fill="#3D1152"/>
<path fill-rule="evenodd" clip-rule="evenodd" d="M44.3278 6.7571C43.4472 6.501 42.5185 6.46017 41.6191 6.63797C40.7196 6.81578 39.8752 7.20713 39.1562 7.77974C38.4371 8.35236 37.8643 9.08973 37.4857 9.9306L36.1179 9.3148C36.5943 8.25676 37.3155 7.32806 38.2217 6.60635C39.128 5.88463 40.193 5.39085 41.3282 5.16645C42.4633 4.94205 43.6354 4.9936 44.7467 5.31677C45.8579 5.63994 46.8759 6.22527 47.7159 7.02368C48.5558 7.82206 49.1935 8.81037 49.5761 9.90607C49.9586 11.0018 50.0751 12.1734 49.9159 13.3233C49.7567 14.4733 49.3263 15.5686 48.6604 16.518C47.9947 17.4671 47.1127 18.2431 46.0876 18.7808C45.0508 19.3275 43.8963 19.6107 42.7251 19.6052L42.7321 18.1052C43.6571 18.1095 44.5692 17.8859 45.3886 17.4536L45.3902 17.4528C46.2032 17.0264 46.9035 16.4107 47.4324 15.6566C47.9613 14.9025 48.3035 14.032 48.4301 13.1176C48.5567 12.2031 48.464 11.2715 48.1599 10.4005C47.8558 9.52954 47.3491 8.74458 46.6824 8.1109C46.0158 7.47725 45.2084 7.0132 44.3278 6.7571Z" fill="#3D1152"/>
<path fill-rule="evenodd" clip-rule="evenodd" d="M18.6492 18.0459C17.9246 18.0459 17.3306 18.6374 17.3306 19.3753V20.415C17.3306 21.1529 17.9246 21.7444 18.6492 21.7444H19.6836C20.4082 21.7444 21.0023 21.1529 21.0023 20.415V19.3753C21.0023 18.6374 20.4082 18.0459 19.6836 18.0459H18.6492ZM15.8306 19.3753C15.8306 17.8163 17.0889 16.5459 18.6492 16.5459H19.6836C21.244 16.5459 22.5023 17.8163 22.5023 19.3753V20.415C22.5023 21.974 21.244 23.2444 19.6836 23.2444H18.6492C17.0889 23.2444 15.8306 21.974 15.8306 20.415V19.3753Z" fill="#3D1152"/>
<path fill-rule="evenodd" clip-rule="evenodd" d="M27.9583 25.3237C27.2337 25.3237 26.6396 25.9153 26.6396 26.6531V27.6928C26.6396 28.4307 27.2337 29.0222 27.9583 29.0222H28.9927C29.7173 29.0222 30.3113 28.4307 30.3113 27.6928V26.6531C30.3113 25.9153 29.7173 25.3237 28.9927 25.3237H27.9583ZM25.1396 26.6531C25.1396 25.0942 26.398 23.8237 27.9583 23.8237H28.9927C30.553 23.8237 31.8113 25.0942 31.8113 26.6531V27.6928C31.8113 29.2518 30.553 30.5222 28.9927 30.5222H27.9583C26.398 30.5222 25.1396 29.2518 25.1396 27.6928V26.6531Z" fill="#3D1152"/>
<path fill-rule="evenodd" clip-rule="evenodd" d="M28.6102 16.6266L20.3355 31.1823L19.0315 30.441L27.3062 15.8853L28.6102 16.6266Z" fill="#3D1152"/>
<path fill-rule="evenodd" clip-rule="evenodd" d="M25.8562 3.04021H37.3639L38.8141 4.25496L37.8509 5.40485L36.8187 4.54021H25.7756L25.7344 4.53565C25.4092 4.49961 25.08 4.53021 24.7667 4.62563C24.4628 4.71822 24.1798 4.87002 23.9338 5.0725L7.6582 21.3182L7.65634 21.3201L3.98629 25.0091L2.17481 26.8219L3.94041 28.6773L15.1462 39.9203L20.0402 44.8397L22.7311 42.187L22.7357 42.1824L41.9765 22.8834C42.4619 22.3819 42.7309 21.7067 42.7233 21.0053L42.7232 21.0013V9.97991L41.4227 8.82079L42.4207 7.701L44.2232 9.30751V20.9931C44.234 22.0894 43.8124 23.1461 43.0493 23.9318L43.0459 23.9354L23.7888 43.2506L20.0299 46.9562L14.0834 40.9789L3.16078 30.0205L2.86529 29.7235L0.079834 26.7963L2.92407 23.95L3.62623 23.2442L6.5948 20.2603L6.59666 20.2585L22.9201 3.96501L22.9441 3.94476C23.3503 3.60206 23.8216 3.34548 24.3297 3.19072C24.8238 3.04021 25.3426 2.98909 25.8562 3.04021Z" fill="#3D1152"/>
</svg>
